HIERARCHY
ROOT root
{
	OFFSET	0	13.1	24.9
	CHANNELS 6  Xposition Yposition Zposition Xrotation Yrotation Zrotation
	JOINT spine_1
	{
		OFFSET	0	9.99999	0
		CHANNELS 3  Xrotation Yrotation Zrotation
		JOINT spine_2
		{
			OFFSET	0	112	-10
			CHANNELS 3  Xrotation Yrotation Zrotation
			JOINT spine_3
			{
				OFFSET	0	206.5	19.3
				CHANNELS 3  Xrotation Yrotation Zrotation
				JOINT spine_4
				{
					OFFSET	0	110.4	14.6
					CHANNELS 3  Xrotation Yrotation Zrotation
					JOINT neck_1
					{
						OFFSET	0	71.8	-50.3
						CHANNELS 3  Xrotation Yrotation Zrotation
						JOINT neck_2
						{
							OFFSET	0	86.2	-25.8
							CHANNELS 3  Xrotation Yrotation Zrotation
							JOINT head_ee
							{
								OFFSET	0	179.8	-8.7
								CHANNELS 3  Xrotation Yrotation Zrotation
								End Site
								{
									OFFSET	1	0	0
								}
							}
						}
					}
					JOINT left_clavicle
					{
						OFFSET	-43.2	22.4	-70.8
						CHANNELS 3  Xrotation Yrotation Zrotation
						JOINT left_shoulder
						{
							OFFSET	-93.9	-5.79999	48.7
							CHANNELS 3  Xrotation Yrotation Zrotation
							JOINT left_elbow
							{
								OFFSET	-291.4	-30.8	15.2
								CHANNELS 3  Xrotation Yrotation Zrotation
								JOINT left_lowarm_twist
								{
									OFFSET	-110.7	-3.89999	13.6
									CHANNELS 3  Xrotation Yrotation Zrotation
									JOINT left_hand
									{
										OFFSET	-110.7	-3.89999	13.6
										CHANNELS 3  Xrotation Yrotation Zrotation
										JOINT left_ee
										{
											OFFSET	-80.8	-5.10001	12.1
											CHANNELS 3  Xrotation Yrotation Zrotation
											End Site
											{
												OFFSET	1	0	0
											}
										}
									}
								}
							}
						}
					}
					JOINT right_clavicle
					{
						OFFSET	43.2	22.4	-70.8
						CHANNELS 3  Xrotation Yrotation Zrotation
						JOINT right_shoulder
						{
							OFFSET	93.9	-5.79999	48.7
							CHANNELS 3  Xrotation Yrotation Zrotation
							JOINT right_elbow
							{
								OFFSET	291.4	-30.8	15.2
								CHANNELS 3  Xrotation Yrotation Zrotation
								JOINT right_lowarm_twist
								{
									OFFSET	110.7	-3.89999	13.6
									CHANNELS 3  Xrotation Yrotation Zrotation
									JOINT right_hand
									{
										OFFSET	110.7	-3.89999	13.6
										CHANNELS 3  Xrotation Yrotation Zrotation
										JOINT right_ee
										{
											OFFSET	80.8	-5.10001	12.1
											CHANNELS 3  Xrotation Yrotation Zrotation
											End Site
											{
												OFFSET	1	0	0
											}
										}
									}
								}
							}
						}
					}
				}
			}
		}
	}
	JOINT left_hip
	{
		OFFSET	-82.8	-127.5	0.300001
		CHANNELS 3  Xrotation Yrotation Zrotation
		JOINT left_knee
		{
			OFFSET	-28.2	-396.7	2.2
			CHANNELS 3  Xrotation Yrotation Zrotation
			JOINT left_ankle
			{
				OFFSET	-11.7	-411.3	35.4
				CHANNELS 3  Xrotation Yrotation Zrotation
				JOINT left_toes
				{
					OFFSET	0	-60	-88.6
					CHANNELS 3  Xrotation Yrotation Zrotation
					JOINT left_foot_ee
					{
						OFFSET	-22.5	-16.5	-42.2
						CHANNELS 3  Xrotation Yrotation Zrotation
						End Site
						{
							OFFSET	1	0	0
						}
					}
				}
			}
		}
	}
	JOINT right_hip
	{
		OFFSET	82.8	-127.5	0.300001
		CHANNELS 3  Xrotation Yrotation Zrotation
		JOINT right_knee
		{
			OFFSET	28.2	-396.7	2.2
			CHANNELS 3  Xrotation Yrotation Zrotation
			JOINT right_ankle
			{
				OFFSET	11.7	-411.3	35.4
				CHANNELS 3  Xrotation Yrotation Zrotation
				JOINT right_toes
				{
					OFFSET	0	-60	-88.6
					CHANNELS 3  Xrotation Yrotation Zrotation
					JOINT right_foot_ee
					{
						OFFSET	22.5	-16.5	-42.2
						CHANNELS 3  Xrotation Yrotation Zrotation
						End Site
						{
							OFFSET	1	0	0
						}
					}
				}
			}
		}
	}
}
MOTION
Frames: 9
Frame Time: 0.02
1723.89 671.668 -1466.28 -48.9324 78.7286 46.5369 1.90215 0.541092 1.73988 1.90373 0.4293 1.77077 1.91714 0.108555 1.81881 1.91274 0.394395 1.77887 -12.4177 10.3985 1.78112 -12.6169 18.6224 4.75235 -0.0 0.0 -0.0 -0.590368 23.7193 1.9394 -27.9705 -14.2973 68.4279 0.443193 -12.3828 0.048079 -56.05 -4.796 4.96133 1.60081 -4.16559 9.05232 -0.0 0.0 -0.0 12.6357 26.6015 -24.7664 10.1367 10.8728 -64.0285 2.32643 49.0442 -1.06141 84.3454 4.34831 8.8355 2.4548 -19.0137 -23.1177 0.0 0.0 0.0 41.1686 17.8511 -10.0169 1.05733 -0.0449812 -0.156014 -10.4796 -8.50358 1.63656 -9.2543 0.0 0.0 -0.0 0.0 -0.0 -1.72103 -17.0429 8.02365 -19.7113 -0.298962 -2.99519 37.0216 28.4862 5.51601 -5.01171 0.0 0.0 0.0 0.0 0.0 
1714.8 669.633 -1464.41 -48.2527 78.2385 45.6181 1.8917 0.613756 2.14889 1.89415 0.475807 2.18356 1.91247 0.0809864 2.23331 1.90577 0.432594 2.19253 -12.3561 10.0058 -0.228312 -12.5733 19.1443 2.71082 -0.0 0.0 -0.0 -0.346486 23.1651 2.20499 -27.5525 -14.2376 68.2983 0.45317 -12.6526 0.0502413 -56.9492 -4.90596 4.99611 2.13539 -3.38585 13.0432 -0.0 0.0 -0.0 12.9688 26.5955 -25.5338 10.02 9.73147 -63.714 2.29344 48.6389 -1.03658 84.7367 4.39503 8.85392 2.60246 -16.4715 -23.3893 0.0 0.0 0.0 42.2576 17.6392 -9.34305 -2.6236 0.0990973 0.390407 -8.06398 -8.53727 1.25498 -9.8017 0.0 0.0 -0.0 0.0 -0.0 -2.52057 -16.4786 8.14974 -17.472 -0.317166 -2.6521 36.9017 28.5768 5.50935 -3.03293 0.0 0.0 0.0 0.0 0.0 
1691.85 670.681 -1457.13 -49.8016 78.2125 46.9723 1.86663 0.532443 2.38166 1.8697 0.379858 2.41069 1.88584 -0.0549529 2.4398 1.87769 0.330943 2.41789 -6.88813 10.6185 -0.956411 -6.8736 20.4154 1.19131 -0.0 0.0 -0.0 -0.135603 23.5832 2.54255 -26.1863 -13.7444 66.6712 0.459782 -12.8311 0.0516996 -57.395 -4.96068 5.01272 2.19026 -0.868132 14.4515 -0.0 0.0 -0.0 13.1872 26.2455 -26.0809 8.60108 8.80214 -63.8174 2.22694 47.8018 -0.986987 84.1189 4.32133 8.82469 2.73447 -19.1395 -25.02 0.0 0.0 0.0 43.2408 18.1367 -9.44376 -7.08238 0.226151 1.06272 -6.28044 -8.06632 0.971928 -7.54299 0.0 0.0 -0.0 0.0 -0.0 -3.1745 -15.8309 9.28343 -17.0292 -0.319176 -2.5842 34.9073 28.8537 5.31335 -1.95501 0.0 0.0 0.0 0.0 0.0 
1675.33 671.431 -1451.61 -48.7265 77.8282 45.7147 1.81539 0.502248 2.60576 1.81911 0.335478 2.63241 1.8347 -0.140495 2.64997 1.82501 0.279633 2.63893 -3.86758 11.1286 -1.51838 -3.68787 21.5047 0.165611 -0.0 0.0 -0.0 0.0963995 23.89 2.89158 -24.8864 -13.5758 66.4231 0.472836 -13.1829 0.0546377 -57.9684 -5.03123 5.03345 2.44441 0.878625 16.9138 -0.0 0.0 -0.0 13.3447 26.1825 -26.4534 7.8748 8.1835 -63.8336 2.17412 47.1169 -0.948063 83.8425 4.28847 8.81137 2.82718 -20.6431 -26.0277 0.0 0.0 0.0 44.1922 18.5333 -9.41428 -10.3606 0.285994 1.56214 -6.20799 -8.05934 0.960552 -6.07261 0.0 0.0 -0.0 0.0 -0.0 -3.70872 -15.8944 10.3931 -15.7674 -0.322028 -2.39062 34.6897 27.288 5.19482 -1.13185 0.0 0.0 0.0 0.0 0.0 
1652.32 670.515 -1446.71 -51.7577 77.2949 48.6569 1.78569 0.451948 2.73045 1.7898 0.277354 2.75365 1.8033 -0.220952 2.75875 1.79275 0.217344 2.75904 -2.221 11.8527 -0.949997 -1.95075 22.2066 0.561684 -0.0 0.0 -0.0 0.291808 23.8924 3.15668 -23.9545 -13.4675 64.9806 0.479975 -13.3748 0.0562775 -58.391 -5.08336 5.04828 2.62561 2.29227 18.7338 -0.0 0.0 -0.0 13.466 25.9574 -26.7622 6.83312 7.57577 -63.9216 2.11811 46.371 -0.907272 83.2513 4.21839 8.78232 2.84371 -22.8616 -26.6629 0.0 0.0 0.0 44.6027 18.786 -9.4876 -12.6896 0.311102 1.91859 -5.97233 -7.91063 0.922966 -4.33037 0.0 0.0 -0.0 0.0 -0.0 -3.65452 -15.9241 10.8188 -14.373 -0.32022 -2.1767 36.0725 26.5463 5.29991 -1.05697 0.0 0.0 0.0 0.0 0.0 
1634.89 677.5 -1440.18 -53.2266 77.0558 50.4869 1.73464 0.426328 2.8138 1.73901 0.246488 2.83521 1.75143 -0.26856 2.8332 1.74027 0.182076 2.84007 -2.65795 12.5466 -0.89159 -2.38236 23.4768 0.793949 -0.0 0.0 -0.0 0.399794 23.6572 3.28025 -22.2874 -14.0489 64.3498 0.596179 -16.4536 0.0861958 -56.8608 -4.89513 4.99277 2.68482 4.17496 19.8651 -0.0 0.0 -0.0 13.4278 22.3221 -27.0563 4.77048 6.1705 -64.6618 2.03322 45.2002 -0.846424 83.2649 4.22 8.783 2.806 -23.9491 -26.6557 0.0 0.0 0.0 44.3751 18.6669 -8.96744 -15.1299 0.321847 2.29282 -5.74055 -5.70357 0.877385 -3.22867 0.0 0.0 -0.0 0.0 -0.0 -3.229 -15.9545 11.2986 -14.1654 -0.319505 -2.14486 36.9994 30.2353 5.63017 0.274698 -0.0 -0.0 0.0 0.0 0.0 
1618.3 681.099 -1434.17 -54.5912 77.0325 51.6589 1.7939 0.226848 2.84936 1.79841 0.0451523 2.85801 1.80065 -0.46853 2.81974 1.78956 -0.0175145 2.85831 -3.24269 12.7311 -0.0563287 -3.01857 23.2453 1.80507 -0.0 0.0 -0.0 0.384704 23.4149 3.236 -20.5924 -14.6529 64.0013 0.641356 -17.6256 0.0994349 -56.3289 -4.83005 4.9723 2.90825 5.58421 21.9654 -0.0 0.0 -0.0 13.3076 21.5143 -26.8457 3.45279 5.7794 -65.2827 1.98546 44.5196 -0.812739 83.1404 4.20527 8.77679 2.84461 -26.1935 -27.3705 0.0 0.0 0.0 44.3571 18.7177 -8.62724 -17.7266 0.315772 2.69114 -3.52258 -4.03103 0.532263 -1.72131 0.0 0.0 -0.0 0.0 -0.0 -2.77342 -15.4429 12.4387 -14.3549 -0.320162 -2.17392 36.9468 30.6368 5.65277 1.20435 -0.0 -0.0 0.0 0.0 0.0 
1598.87 684.154 -1424.12 -57.5486 77.5552 54.85 1.64226 0.161453 2.90992 1.64697 -0.0239595 2.91429 1.64586 -0.554458 2.8612 1.63445 -0.0958264 2.91281 -3.14038 12.7505 0.276253 -2.91856 23.0103 2.13517 -0.0 0.0 -0.0 0.392503 23.1937 3.22508 -18.8485 -16.1526 63.9987 0.695648 -19.0142 0.116502 -55.1314 -4.68424 4.92401 3.18363 5.34121 23.8512 -0.0 0.0 -0.0 12.9099 19.3791 -26.0786 1.83482 4.92075 -65.7958 1.88408 43.0202 -0.742598 83.6438 4.26488 8.80168 2.91065 -25.2632 -27.6159 0.0 0.0 0.0 43.5597 19.2957 -8.30725 -20.5991 0.288036 3.13097 -1.75041 -3.06852 0.262501 -0.616319 0.0 0.0 -0.0 0.0 -0.0 -1.57268 -14.8476 13.4903 -18.4698 -0.31071 -2.80507 36.7128 31.9586 5.72429 2.76994 -0.0 -0.0 0.0 0.0 0.0 
1577.27 684.627 -1421.82 -61.1549 78.8745 58.3961 1.54411 0.150296 2.83556 1.54858 -0.0303684 2.83938 1.54729 -0.551895 2.78543 1.53648 -0.105246 2.83759 -2.4437 11.9408 -0.54991 -2.19464 22.0815 1.03467 -0.0 0.0 -0.0 -1.19663 23.0307 1.01521 -15.6111 -18.1141 66.8103 0.747808 -20.3267 0.13406 -54.5744 -4.61676 4.9005 3.30169 6.87646 25.2558 -0.0 0.0 -0.0 12.5462 18.3205 -25.301 -0.453654 5.17339 -66.145 1.74497 40.8368 -0.649631 83.0843 4.19864 8.77398 2.45909 -26.5199 -24.9852 0.0 0.0 0.0 41.5621 19.087 -7.6295 -21.537 0.274208 3.27422 0.365003 -1.33788 -0.0541487 0.645649 -0.0 -0.0 -0.0 0.0 -0.0 -1.34457 -14.577 13.5465 -21.9702 -0.26703 -3.3403 36.6388 28.8473 5.49925 3.59399 -0.0 -0.0 0.0 0.0 0.0 
